<svg xmlns="http://www.w3.org/2000/svg" viewBox="0 0 501.28 508"><defs><style>.cls-1{fill:#029aca;}</style></defs><g id="Capa_2" data-name="Capa 2"><g id="Capa_1-2" data-name="Capa 1"><path class="cls-1" d="M463.26,160.91H341.35V38a38.06,38.06,0,0,0-38-38H195.05a38.07,38.07,0,0,0-38,38v120.5a37.78,37.78,0,0,0,11.14,26.88L318.73,336a12.66,12.66,0,0,1,3.73,9V470a12.76,12.76,0,0,1-12.74,12.74H194.16A12.75,12.75,0,0,1,181.43,470V337.64A17.46,17.46,0,0,0,164,320.2H38a12.76,12.76,0,0,1-12.74-12.74V198.93A12.75,12.75,0,0,1,38,186.19H73.26a23.39,23.39,0,1,0,0-25.28H38a38.06,38.06,0,0,0-38,38V307.46a38.06,38.06,0,0,0,38,38H156.14V470a38.07,38.07,0,0,0,38,38H309.72a38.07,38.07,0,0,0,38-38V345a37.74,37.74,0,0,0-11.14-26.88L186.05,167.52a12.61,12.61,0,0,1-3.73-9V38a12.75,12.75,0,0,1,12.73-12.74H303.33A12.76,12.76,0,0,1,316.07,38V164.28A21.94,21.94,0,0,0,338,186.19H463.26A12.75,12.75,0,0,1,476,198.93V309.24A12.75,12.75,0,0,1,463.25,322H426.69a23.39,23.39,0,1,0,.15,25.29h36.41a38.07,38.07,0,0,0,38-38V198.93A38.06,38.06,0,0,0,463.26,160.91Z"/></g></g></svg>