<svg width="21" height="20" viewBox="0 0 21 20" fill="none" xmlns="http://www.w3.org/2000/svg">
<g clip-path="url(#clip0_303_9644)">
<circle cx="10.99" cy="10" r="10" fill="white"/>
<path fill-rule="evenodd" clip-rule="evenodd" d="M10.99 0C5.46499 0 0.98999 4.475 0.98999 10C0.98999 14.425 3.85249 18.1625 7.82749 19.4875C8.32749 19.575 8.51499 19.275 8.51499 19.0125C8.51499 18.775 8.50249 17.9875 8.50249 17.15C5.98999 17.6125 5.33999 16.5375 5.13999 15.975C5.02749 15.6875 4.53999 14.8 4.11499 14.5625C3.76499 14.375 3.26499 13.9125 4.10249 13.9C4.88999 13.8875 5.45249 14.625 5.63999 14.925C6.53999 16.4375 7.97749 16.0125 8.55249 15.75C8.63999 15.1 8.90249 14.6625 9.18999 14.4125C6.96499 14.1625 4.63999 13.3 4.63999 9.475C4.63999 8.3875 5.02749 7.4875 5.66499 6.7875C5.56499 6.5375 5.21499 5.5125 5.76499 4.1375C5.76499 4.1375 6.60249 3.875 8.51499 5.1625C9.31499 4.9375 10.165 4.825 11.015 4.825C11.865 4.825 12.715 4.9375 13.515 5.1625C15.4275 3.8625 16.265 4.1375 16.265 4.1375C16.815 5.5125 16.465 6.5375 16.365 6.7875C17.0025 7.4875 17.39 8.375 17.39 9.475C17.39 13.3125 15.0525 14.1625 12.8275 14.4125C13.19 14.725 13.5025 15.325 13.5025 16.2625C13.5025 17.6 13.49 18.675 13.49 19.0125C13.49 19.275 13.6775 19.5875 14.1775 19.4875C16.1626 18.8173 17.8876 17.5414 19.1097 15.8395C20.3318 14.1375 20.9894 12.0952 20.99 10C20.99 4.475 16.515 0 10.99 0Z" fill="#3C3C3C"/>
</g>
<defs>
<clipPath id="clip0_303_9644">
<rect width="20" height="20" fill="white" transform="translate(0.98999)"/>
</clipPath>
</defs>
</svg>
