<svg xmlns="http://www.w3.org/2000/svg" viewBox="0 0 1628.59 348.21"><defs><style>.cls-1{fill:#029aca;}.cls-2{fill:#3c3c3c;}</style></defs><g id="Capa_2" data-name="Capa 2"><g id="Capa_1-2" data-name="Capa 1"><path class="cls-1" d="M317.54,110.29H234V26.06A26.09,26.09,0,0,0,207.92,0H133.7a26.09,26.09,0,0,0-26.06,26.06v82.6a25.92,25.92,0,0,0,7.63,18.43l103.2,103.2a8.67,8.67,0,0,1,2.56,6.17v85.69a8.73,8.73,0,0,1-8.73,8.73H133.09a8.74,8.74,0,0,1-8.73-8.73V231.44a12,12,0,0,0-12-12H26.06a8.74,8.74,0,0,1-8.73-8.73V136.36a8.74,8.74,0,0,1,8.73-8.73H50.22a16,16,0,1,0,0-17.34H26.06A26.1,26.1,0,0,0,0,136.36v74.39a26.09,26.09,0,0,0,26.06,26.06h81v85.34a26.09,26.09,0,0,0,26.06,26.06H212.3a26.09,26.09,0,0,0,26.06-26.06V236.46A25.9,25.9,0,0,0,230.73,218l-103.2-103.2a8.67,8.67,0,0,1-2.56-6.17V26.06a8.74,8.74,0,0,1,8.73-8.73h74.22a8.74,8.74,0,0,1,8.73,8.73v86.55a15,15,0,0,0,15,15h85.87a8.73,8.73,0,0,1,8.73,8.73V212a8.74,8.74,0,0,1-8.73,8.73H292.48a16,16,0,1,0,.1,17.33h25A26.1,26.1,0,0,0,343.61,212V136.36A26.11,26.11,0,0,0,317.54,110.29Z"/><path class="cls-2" d="M531.19,55.35V209.56H511.05V139.65H432.51v69.91H412.37V55.35h20.14v67.7h78.54V55.35Z"/><path class="cls-2" d="M675.44,156.46H578.53q1.11,17.92,12.28,28t27.11,10.07q13.05,0,21.79-6.09A32.19,32.19,0,0,0,652,172.17h21.68A52,52,0,0,1,654.2,200.6q-14.6,11-36.28,11-17.26,0-30.87-7.75a54.8,54.8,0,0,1-21.35-22Q558,167.52,558,148.72t7.52-33A52.79,52.79,0,0,1,586.61,94q13.6-7.63,31.31-7.63,17.25,0,30.53,7.52a52.09,52.09,0,0,1,20.47,20.69,61.05,61.05,0,0,1,7.19,29.75A119.11,119.11,0,0,1,675.44,156.46Zm-25.22-36.17a33.08,33.08,0,0,0-13.83-12.61A43.1,43.1,0,0,0,617,103.36q-15.27,0-26,9.74t-12.28,27h76.56Q655.31,128.58,650.22,120.29Z"/><path class="cls-2" d="M702.66,115.86a54.59,54.59,0,0,1,20.68-21.79,56.78,56.78,0,0,1,29.32-7.74q15.93,0,27.66,6.85t17.47,17.26V88.32h20.36V209.56H797.79V187A47.45,47.45,0,0,1,780,204.59q-11.84,7-27.54,7a55,55,0,0,1-29.21-8,55.83,55.83,0,0,1-20.57-22.35q-7.53-14.37-7.53-32.74Q695.13,129.92,702.66,115.86Zm89.6,9a39,39,0,0,0-14.93-15.59,42.3,42.3,0,0,0-41.27-.11,38.57,38.57,0,0,0-14.82,15.48q-5.54,10.18-5.53,23.9,0,13.94,5.53,24.23a39.18,39.18,0,0,0,14.82,15.7,40.07,40.07,0,0,0,20.58,5.43,40.65,40.65,0,0,0,20.69-5.43,38.9,38.9,0,0,0,14.93-15.7q5.54-10.29,5.53-24T792.26,124.82Z"/><path class="cls-2" d="M872.36,45.84V209.56H852.22V45.84Z"/><path class="cls-2" d="M931.21,104.91v71.47q0,8.85,3.76,12.5c2.5,2.43,6.86,3.65,13,3.65h14.83v17H944.7q-16.82,0-25.22-7.74t-8.41-25.44V104.91H895.36V88.32h15.71V57.78h20.14V88.32h31.64v16.59Z"/><path class="cls-2" d="M1072.14,92a41.59,41.59,0,0,1,17.37,17.59q6.32,11.73,6.31,28.54v71.46h-19.91V141q0-18.15-9.08-27.77t-24.78-9.63q-15.93,0-25.33,10t-9.4,29v67H987.18V45.84h20.14v59.73a39.7,39.7,0,0,1,16.48-14.38,53.38,53.38,0,0,1,23.56-5.09A52,52,0,0,1,1072.14,92Z"/><path class="cls-1" d="M1223.7,55.35V71.72h-42V209.56h-20.14V71.72h-42.26V55.35Z"/><path class="cls-1" d="M1358.44,156.46h-96.9q1.1,17.92,12.27,28t27.11,10.07q13,0,21.79-6.09A32.14,32.14,0,0,0,1335,172.17h21.68a52,52,0,0,1-19.47,28.43q-14.6,11-36.28,11-17.26,0-30.87-7.75a54.8,54.8,0,0,1-21.35-22q-7.74-14.28-7.74-33.08t7.52-33A52.79,52.79,0,0,1,1269.61,94q13.61-7.63,31.31-7.63,17.25,0,30.53,7.52a52.09,52.09,0,0,1,20.47,20.69,61.05,61.05,0,0,1,7.19,29.75A116.32,116.32,0,0,1,1358.44,156.46Zm-25.22-36.17a33,33,0,0,0-13.83-12.61,43.1,43.1,0,0,0-19.36-4.32q-15.26,0-26,9.74t-12.28,27h76.55Q1338.31,128.58,1333.22,120.29Z"/><path class="cls-1" d="M1385.66,115.86a54.07,54.07,0,0,1,20.91-21.79q13.38-7.74,30.64-7.74,22.35,0,36.84,10.84t19.14,30.09H1471.5a31.11,31.11,0,0,0-12-17.48q-9-6.42-22.24-6.42-17.25,0-27.88,11.84t-10.62,33.52q0,21.9,10.62,33.85t27.88,12q13.27,0,22.13-6.2t12.16-17.7h21.69a53.36,53.36,0,0,1-19.47,29.76q-14.61,11.18-36.51,11.18-17.25,0-30.64-7.75a53.86,53.86,0,0,1-20.91-21.9q-7.53-14.16-7.53-33.19Q1378.13,129.91,1385.66,115.86Z"/><path class="cls-1" d="M1604.92,92a41.7,41.7,0,0,1,17.37,17.59q6.3,11.73,6.3,28.54v71.46h-19.91V141q0-18.15-9.07-27.77t-24.78-9.63q-15.93,0-25.33,10t-9.41,29v67H1520V45.84h20.13v59.73a39.73,39.73,0,0,1,16.49-14.38,53.35,53.35,0,0,1,23.56-5.09A52.1,52.1,0,0,1,1604.92,92Z"/><path class="cls-2" d="M461,254.3v47.6h-6.25V266.4l-15.83,35.5h-4.4l-15.89-35.56V301.9h-6.26V254.3h6.75l17.6,39.34,17.61-39.34Z"/><path class="cls-2" d="M512.25,259v16h17.47v5.16H512.25v16.51h19.53v5.16H506v-48h25.79V259Z"/><path class="cls-2" d="M604.18,256.88a20.59,20.59,0,0,1,8.8,8.35,28.22,28.22,0,0,1,0,25.56,20.19,20.19,0,0,1-8.8,8.25,30.12,30.12,0,0,1-13.59,2.86H575.66V254h14.93A29.6,29.6,0,0,1,604.18,256.88Zm.58,34.94q4.89-4.92,4.88-13.79t-4.91-14q-4.92-5-14.14-5h-8.67v37.7h8.67Q599.88,296.74,604.76,291.82Z"/><path class="cls-2" d="M664.94,254V301.9h-6.25V254Z"/><path class="cls-2" d="M710.82,265.27a23,23,0,0,1,8.63-8.77,23.82,23.82,0,0,1,12.14-3.16,24.66,24.66,0,0,1,13.69,3.78,21.67,21.67,0,0,1,8.53,10.73h-7.5a15,15,0,0,0-5.74-6.67,16.61,16.61,0,0,0-9-2.34,17.49,17.49,0,0,0-9,2.34,16.42,16.42,0,0,0-6.26,6.63,23.36,23.36,0,0,0,0,20.09,16.38,16.38,0,0,0,6.26,6.64,17.49,17.49,0,0,0,9,2.34,16.78,16.78,0,0,0,9-2.31,14.85,14.85,0,0,0,5.74-6.64h7.5a21.51,21.51,0,0,1-8.53,10.63,24.8,24.8,0,0,1-13.69,3.75,24,24,0,0,1-12.14-3.13,22.89,22.89,0,0,1-8.63-8.7,26.72,26.72,0,0,1,0-25.21Z"/><path class="cls-2" d="M825.83,291.24H804.92l-3.86,10.66h-6.6l17.34-47.67H819l17.26,47.67h-6.6ZM824,286.15l-8.67-24.22-8.66,24.22Z"/><path class="cls-2" d="M884.5,296.81h16.78v5.09h-23V254h6.26Z"/><path class="cls-2" d="M1001.81,300.69a14.13,14.13,0,0,1-5.88-4.67,12,12,0,0,1-2.2-6.92h6.67a8.83,8.83,0,0,0,2.78,5.68q2.45,2.3,7.12,2.3a10.4,10.4,0,0,0,7.05-2.23,7.26,7.26,0,0,0,2.58-5.75,6.52,6.52,0,0,0-1.51-4.47,9.68,9.68,0,0,0-3.78-2.61,59.67,59.67,0,0,0-6.12-1.93,54.24,54.24,0,0,1-7.61-2.47,12.24,12.24,0,0,1-4.88-3.89,11.43,11.43,0,0,1-2-7.12,12.36,12.36,0,0,1,2-6.95,13.06,13.06,0,0,1,5.6-4.67,19.76,19.76,0,0,1,8.29-1.65q6.74,0,11,3.37a12.42,12.42,0,0,1,4.85,8.94h-6.88a7.4,7.4,0,0,0-2.89-4.85,10.24,10.24,0,0,0-6.74-2.1,9.81,9.81,0,0,0-6.4,2,6.91,6.91,0,0,0-2.47,5.67,6.13,6.13,0,0,0,1.48,4.27,9.47,9.47,0,0,0,3.64,2.51c1.45.57,3.48,1.23,6.09,2a56.55,56.55,0,0,1,7.63,2.58,12.82,12.82,0,0,1,5,3.92,11.44,11.44,0,0,1,2.06,7.19,12.58,12.58,0,0,1-1.86,6.6,13.59,13.59,0,0,1-5.5,5,18.1,18.1,0,0,1-8.6,1.93A20.4,20.4,0,0,1,1001.81,300.69Z"/><path class="cls-2" d="M1079.43,299.25a22.9,22.9,0,0,1-8.7-8.74,26.49,26.49,0,0,1,0-25.24,22.9,22.9,0,0,1,8.7-8.74,25.38,25.38,0,0,1,24.42,0,22.69,22.69,0,0,1,8.66,8.7,26.87,26.87,0,0,1,0,25.32,22.69,22.69,0,0,1-8.66,8.7,25.38,25.38,0,0,1-24.42,0Zm21.22-4.64a16.53,16.53,0,0,0,6.33-6.68,23.15,23.15,0,0,0,0-20.12,16.65,16.65,0,0,0-6.3-6.63,18.79,18.79,0,0,0-18.16,0,16.62,16.62,0,0,0-6.29,6.63,23.15,23.15,0,0,0,0,20.12,16.53,16.53,0,0,0,6.33,6.68,18.72,18.72,0,0,0,18.09,0Z"/><path class="cls-2" d="M1164.58,296.81h16.79v5.09h-23V254h6.26Z"/><path class="cls-2" d="M1228.55,254v30.34q0,6.39,3.13,9.49c2.09,2.06,5,3.1,8.7,3.1s6.55-1,8.63-3.1,3.13-5.23,3.13-9.49V254h6.26v30.27a19.64,19.64,0,0,1-2.4,10.08,15.16,15.16,0,0,1-6.5,6.08,22.09,22.09,0,0,1-18.37,0,14.85,14.85,0,0,1-6.46-6.08,19.74,19.74,0,0,1-2.38-10.08V254Z"/><path class="cls-2" d="M1332.76,254V259h-13.07V301.9h-6.26V259h-13.14V254Z"/><path class="cls-2" d="M1381.11,254V301.9h-6.26V254Z"/><path class="cls-2" d="M1435.72,299.25a22.9,22.9,0,0,1-8.7-8.74,26.49,26.49,0,0,1,0-25.24,22.9,22.9,0,0,1,8.7-8.74,25.38,25.38,0,0,1,24.42,0,22.79,22.79,0,0,1,8.67,8.7,26.94,26.94,0,0,1,0,25.32,22.79,22.79,0,0,1-8.67,8.7,25.38,25.38,0,0,1-24.42,0Zm21.22-4.64a16.46,16.46,0,0,0,6.33-6.68,23.06,23.06,0,0,0,0-20.12,16.62,16.62,0,0,0-6.29-6.63,18.79,18.79,0,0,0-18.16,0,16.56,16.56,0,0,0-6.29,6.63,23.06,23.06,0,0,0,0,20.12,16.44,16.44,0,0,0,6.32,6.68,18.72,18.72,0,0,0,18.09,0Z"/><path class="cls-2" d="M1552.31,301.9h-6.26l-25.17-38.18V301.9h-6.26v-48h6.26l25.17,38.1v-38.1h6.26Z"/><path class="cls-2" d="M1604.07,300.69a14.13,14.13,0,0,1-5.88-4.67,12,12,0,0,1-2.2-6.92h6.67a8.8,8.8,0,0,0,2.79,5.68c1.62,1.53,4,2.3,7.11,2.3a10.37,10.37,0,0,0,7-2.23,7.26,7.26,0,0,0,2.58-5.75,6.52,6.52,0,0,0-1.51-4.47,9.68,9.68,0,0,0-3.78-2.61,58.87,58.87,0,0,0-6.12-1.93,53.61,53.61,0,0,1-7.6-2.47,12.2,12.2,0,0,1-4.89-3.89,11.43,11.43,0,0,1-2-7.12,12.36,12.36,0,0,1,2-6.95,13.06,13.06,0,0,1,5.6-4.67,19.76,19.76,0,0,1,8.29-1.65q6.75,0,11,3.37a12.42,12.42,0,0,1,4.85,8.94h-6.88a7.4,7.4,0,0,0-2.89-4.85,10.24,10.24,0,0,0-6.74-2.1,9.77,9.77,0,0,0-6.39,2,6.92,6.92,0,0,0-2.48,5.67,6.13,6.13,0,0,0,1.48,4.27,9.47,9.47,0,0,0,3.64,2.51c1.45.57,3.48,1.23,6.09,2a56.76,56.76,0,0,1,7.64,2.58,12.87,12.87,0,0,1,5,3.92,11.44,11.44,0,0,1,2.06,7.19,12.67,12.67,0,0,1-1.85,6.6,13.68,13.68,0,0,1-5.51,5,18.07,18.07,0,0,1-8.6,1.93A20.4,20.4,0,0,1,1604.07,300.69Z"/></g></g></svg>